<svg width="80" height="72" viewBox="0 0 80 72" xmlns="http://www.w3.org/2000/svg">
<path fill-rule="evenodd" clip-rule="evenodd" d="M54.0698 12.5317C54.721 12.3563 55.4011 12.3109 56.0698 12.3979C56.7384 12.485 57.3837 12.7033 57.9682 13.0395C58.5237 13.3592 59.0141 13.7811 59.4145 14.2807C59.5684 14.123 59.7331 13.9746 59.9067 13.8374C60.4417 13.4145 61.0564 13.1016 61.7134 12.9184C62.3701 12.7354 63.0574 12.6849 63.7339 12.77C64.4106 12.8552 65.0646 13.0743 65.6557 13.4145C66.2468 13.7548 66.7647 14.21 67.1782 14.7524C67.5916 15.2948 67.8924 15.9156 68.0639 16.5757C68.2353 17.2357 68.2743 17.9241 68.1772 18.5991C68.1521 18.7734 68.1173 18.9465 68.0747 19.1167C68.7228 19.2088 69.3487 19.4225 69.9165 19.7495C70.5112 20.0921 71.0312 20.5512 71.4458 21.0981C71.8604 21.6452 72.1614 22.2708 72.3305 22.936C72.4995 23.601 72.5341 24.2938 72.4311 24.9721C72.328 25.6508 72.0889 26.3031 71.7299 26.8882L66.9116 35.2612L67.4165 34.9926C68.6002 34.3634 69.9745 34.1912 71.2768 34.5092C72.5792 34.8275 73.7197 35.614 74.4799 36.7182C75.2401 37.8227 75.5676 39.1693 75.3999 40.4995C75.2319 41.8296 74.5803 43.0521 73.5698 43.9331L69.0669 47.8471C69.0028 47.9176 68.9342 47.9853 68.8589 48.0444L57.7983 56.7085C55.2696 58.6874 52.2072 59.8667 49.0044 60.0952C47.4409 60.2066 45.8791 60.0866 44.3657 59.7505C44.1452 60.3726 43.887 60.9827 43.5903 61.5757C42.5847 63.5851 41.1687 65.362 39.435 66.7915L39.0307 67.1255C37.2831 68.5618 35.3093 69.6992 33.1909 70.4926L32.6255 70.7026C29.6161 71.8227 26.3408 72.0195 23.2192 71.2671C20.0975 70.5146 17.2715 68.8472 15.103 66.479L5.6196 56.1128C5.56614 56.0542 5.51779 55.9904 5.47312 55.9253L1.64304 51.2817C0.791252 50.2464 0.349533 48.9338 0.402804 47.5942C0.456348 46.2546 1.00059 44.9803 1.9321 44.0161C2.86378 43.0519 4.11847 42.4633 5.45554 42.3637C6.7925 42.2644 8.12003 42.6604 9.18405 43.476L9.64402 43.8296L6.26901 34.7729C6.01131 34.1369 5.88307 33.4552 5.89304 32.769C5.90311 32.0827 6.0504 31.4042 6.32663 30.7758C6.60287 30.1478 7.00275 29.581 7.50144 29.1098C8.00047 28.6385 8.58982 28.2708 9.23288 28.0307C9.84472 27.8024 10.4947 27.6945 11.1469 27.7094C11.1329 27.5346 11.1284 27.3581 11.1323 27.1821C11.1476 26.5003 11.2989 25.8274 11.5766 25.2046C11.8545 24.5819 12.2535 24.0201 12.7505 23.5532C13.2476 23.0863 13.8332 22.7222 14.4721 22.4839C15.1111 22.2456 15.7917 22.1363 16.4731 22.1635C17.1547 22.1909 17.8249 22.3542 18.4428 22.643C19.0607 22.9318 19.6156 23.3409 20.0737 23.8462C20.2234 24.0113 20.3603 24.1873 20.4868 24.3696C20.9649 23.941 21.5194 23.6049 22.1216 23.3803C22.7536 23.1448 23.427 23.0358 24.101 23.06C24.775 23.0843 25.4379 23.2407 26.0512 23.521C26.6647 23.8013 27.2177 24.2001 27.6772 24.6938C28.1365 25.1874 28.4943 25.7672 28.73 26.3989L29.4282 28.2729C29.8713 27.9023 30.3785 27.6055 30.9301 27.3999C32.2067 26.9242 33.6208 26.9744 34.8598 27.5405C35.1079 27.6538 35.3446 27.7869 35.5688 27.936L41.602 17.4516C42.2815 16.271 43.403 15.4077 44.7182 15.0532C46.0334 14.6989 47.436 14.8819 48.6167 15.561C49.1263 15.8542 49.5768 16.2307 49.9526 16.6684L50.9536 14.9301C51.2899 14.3458 51.7386 13.8327 52.2729 13.4214C52.8074 13.0101 53.4186 12.7072 54.0698 12.5317ZM17.0092 25.8237C16.5964 25.6352 16.125 25.6184 15.6997 25.7768C15.2745 25.9354 14.9295 26.2568 14.7407 26.6694C14.5521 27.0822 14.5346 27.5537 14.6928 27.979L15.7837 30.9018C15.8213 30.9939 15.8578 31.0877 15.8901 31.1821L19.4829 40.8139C19.4872 40.8254 19.4897 40.8385 19.4936 40.8501L20.6733 44.0132C20.7612 44.2254 20.8051 44.4544 20.8032 44.6841C20.8012 44.9137 20.7531 45.1414 20.6616 45.352C20.57 45.5626 20.4366 45.7535 20.27 45.9116C20.1034 46.0696 19.906 46.1925 19.6909 46.2729C19.4755 46.3534 19.2457 46.3894 19.0161 46.3794C18.7865 46.3693 18.5613 46.3133 18.354 46.2143C18.1465 46.1153 17.9603 45.9754 17.8081 45.8032C17.6559 45.631 17.5401 45.4293 17.4673 45.2114L12.6635 32.3335C12.4993 31.9299 12.1889 31.6021 11.7915 31.4204C11.3785 31.2317 10.9063 31.2141 10.4809 31.3725C10.0557 31.5311 9.71074 31.8533 9.52194 32.2661C9.42863 32.4704 9.3758 32.692 9.36765 32.9165C9.35965 33.1409 9.39672 33.3652 9.47507 33.5757L14.855 47.9966C14.971 48.1932 15.0483 48.4132 15.0786 48.644C15.1375 49.094 15.0151 49.5496 14.7387 49.9096C14.4621 50.2697 14.0532 50.5049 13.603 50.5639C13.1527 50.6228 12.6974 50.5008 12.3374 50.2241L7.09226 46.186C6.6956 45.877 6.19829 45.725 5.69675 45.7602C5.19509 45.7957 4.72291 46.0157 4.37351 46.3774C4.02427 46.7392 3.82115 47.2187 3.80319 47.7212C3.78547 48.2237 3.95504 48.7154 4.2778 49.101L8.19382 53.8364C8.21214 53.8585 8.22845 53.8827 8.24558 53.9057L17.6323 64.1714C19.3391 66.0368 21.5647 67.3499 24.0229 67.9419C26.4812 68.5338 29.0602 68.3776 31.4292 67.4936L31.9975 67.2856C33.7588 66.6302 35.3955 65.6822 36.8491 64.4829L37.2534 64.1489C38.6189 63.0236 39.7347 61.6247 40.5268 60.0424C41.3188 58.4602 41.7704 56.7289 41.853 54.9614L41.8579 54.8344C41.9405 53.0645 41.6645 51.2954 41.0473 49.6362L36.8784 38.4546C36.8766 38.4497 36.8753 38.4438 36.8735 38.4389L34.3296 31.6147C34.251 31.4043 34.131 31.2107 33.978 31.0464C33.825 30.8821 33.6411 30.7491 33.437 30.6557C33.2835 30.5856 33.1202 30.5385 32.9536 30.5161L32.7866 30.5024C32.562 30.4943 32.337 30.5304 32.1264 30.6089C31.9161 30.6873 31.7225 30.8065 31.5581 30.9594C31.3937 31.1124 31.2609 31.2972 31.1675 31.5014C31.0741 31.7058 31.0213 31.9273 31.0132 32.1518C31.0052 32.3722 31.0413 32.5922 31.1167 32.7993L33.5161 39.2329C33.6746 39.6582 33.6577 40.1295 33.4692 40.5424C33.2806 40.9553 32.9354 41.2763 32.5102 41.435C32.0848 41.5936 31.6137 41.5768 31.2007 41.3882C31.0457 41.3173 30.9032 41.2246 30.7778 41.1137C30.5675 40.9288 30.4028 40.6934 30.3032 40.4262L27.9116 34.0073C27.9083 33.9984 27.9051 33.9888 27.9018 33.9799L25.521 27.5952C25.3623 27.1702 25.041 26.8249 24.6284 26.6362C24.2155 26.4476 23.7433 26.4309 23.3178 26.5893C22.8927 26.7479 22.5476 27.0693 22.3589 27.4819C22.1702 27.8947 22.1537 28.3661 22.312 28.7915L27.1001 41.6225C27.1784 41.8329 27.2145 42.0574 27.2065 42.2817C27.1985 42.5062 27.1455 42.7277 27.0522 42.9321C26.9589 43.1364 26.8259 43.321 26.6616 43.4741C26.4971 43.6271 26.3037 43.7462 26.0932 43.8247C25.8827 43.9032 25.6586 43.9401 25.4341 43.9321C25.2094 43.924 24.9881 43.8712 24.7837 43.7778C24.5792 43.6844 24.3948 43.5517 24.2417 43.3872C24.0886 43.2227 23.9686 43.0293 23.8901 42.8188L22.7348 39.7231C22.719 39.6882 22.7024 39.6528 22.6889 39.6167L17.9028 26.7827C17.7441 26.3575 17.4221 26.0123 17.0092 25.8237ZM56.2602 16.0083C55.8669 15.7822 55.3995 15.7205 54.9614 15.8383C54.5232 15.9565 54.1488 16.2449 53.9223 16.6382L50.5542 22.4878C50.5383 22.5167 50.5237 22.547 50.5073 22.5757L47.0913 28.5132C46.8649 28.9064 46.4913 29.1937 46.0532 29.312C45.6148 29.4301 45.1469 29.3694 44.7534 29.143C44.5075 29.0014 44.3024 28.8023 44.1548 28.5659C44.0651 28.4231 43.9963 28.2658 43.9516 28.1001C43.8338 27.6618 43.8942 27.1936 44.1206 26.8003L47.5688 20.8091C47.6629 20.6299 47.7272 20.4359 47.7534 20.2348C47.7823 20.012 47.7669 19.7848 47.7085 19.5678C47.6499 19.351 47.5486 19.1472 47.4116 18.9692C47.2745 18.7913 47.1033 18.6418 46.9087 18.5298C46.7139 18.4178 46.4986 18.3449 46.2759 18.3159C46.0533 18.287 45.8266 18.3015 45.6098 18.3598C45.3929 18.4183 45.1883 18.5197 45.0102 18.6567C44.8323 18.7937 44.6828 18.9651 44.5708 19.1596L37.7563 31.0024L42.3237 43.2553C42.3274 43.2654 42.33 43.2765 42.3335 43.2866L44.2563 48.4399C45.0388 50.5324 45.387 52.7632 45.2788 54.9946L45.2739 55.1225C45.2536 55.558 45.214 55.9923 45.1587 56.4233C46.334 56.6794 47.5461 56.7693 48.7593 56.6831C51.2814 56.5037 53.6935 55.5753 55.6841 54.0161L66.5844 45.4721C66.6174 45.4384 66.6522 45.4055 66.688 45.3745L71.3296 41.3481C71.7114 41.0208 71.9597 40.5636 72.0249 40.0649C72.0899 39.5663 71.968 39.0603 71.6831 38.646C71.398 38.2317 70.9689 37.9373 70.4799 37.8198C69.9911 37.7024 69.4757 37.7699 69.0337 38.0092L63.1948 41.1294C62.7943 41.3428 62.3253 41.3884 61.8911 41.2563C61.4569 41.1241 61.0921 40.8248 60.8784 40.4243C60.665 40.0237 60.6192 39.5539 60.7514 39.1196C60.8217 38.8891 60.9397 38.6784 61.0942 38.4995L68.7651 25.1792C68.8771 24.9844 68.95 24.7682 68.979 24.5454C69.0078 24.3228 68.9924 24.0961 68.9341 23.8794C68.8158 23.4412 68.5285 23.0667 68.1352 22.8403C67.7418 22.614 67.2737 22.5534 66.8354 22.6714C66.3973 22.7895 66.0229 23.077 65.7964 23.4702L58.9663 35.3403C58.8586 35.5432 58.711 35.7229 58.5327 35.8676C58.3543 36.0124 58.148 36.1195 57.9272 36.1831C57.7064 36.2466 57.4746 36.2655 57.2466 36.2378C57.0185 36.2099 56.7982 36.1357 56.5991 36.021C56.4 35.9062 56.2258 35.7522 56.0874 35.5688C55.9492 35.3855 55.8482 35.1763 55.7925 34.9536C55.7368 34.7307 55.7264 34.4978 55.7622 34.271C55.7981 34.0441 55.8798 33.8262 56.0014 33.6313L57.6225 30.813C57.6446 30.7648 57.6691 30.7167 57.6958 30.6704L64.5327 18.7993C64.759 18.4057 64.8198 17.9378 64.7016 17.4995C64.5833 17.0613 64.2962 16.6868 63.9028 16.4604C63.5094 16.2342 63.0413 16.1735 62.603 16.2915C62.1648 16.4096 61.7904 16.698 61.5639 17.0913L59.8676 20.0366C59.8645 20.0421 59.862 20.0486 59.8589 20.0542L54.7309 28.9614C54.7267 28.9687 54.7206 28.9757 54.7163 28.9829L53.0249 31.9214C52.9129 32.1159 52.7633 32.2872 52.5854 32.4243C52.4073 32.5613 52.2028 32.6626 51.9858 32.7212C51.769 32.7795 51.5425 32.795 51.3198 32.7661C51.097 32.737 50.8817 32.6642 50.687 32.5522C50.4922 32.4401 50.3211 32.2899 50.1841 32.1118C50.0471 31.9337 49.9456 31.7301 49.8872 31.5132C49.8289 31.2964 49.8134 31.0697 49.8423 30.8471C49.8713 30.6244 49.9441 30.4081 50.0561 30.2133L56.8989 18.3305C57.118 17.9402 57.1766 17.479 57.06 17.0464C56.9417 16.6082 56.6536 16.2346 56.2602 16.0083Z" />
<path d="M19.1645 7.53952C19.5888 7.49355 19.9925 7.61912 20.2856 7.88815L24.2143 11.4985C24.5074 11.7677 24.6665 12.1587 24.6567 12.5854C24.6468 13.0123 24.4687 13.4405 24.1616 13.7749C23.8544 14.1091 23.4434 14.3226 23.019 14.3686C22.5944 14.4146 22.1911 14.2893 21.8979 14.02L17.9692 10.4106C17.6761 10.1413 17.5169 9.74956 17.5268 9.32272C17.537 8.89608 17.7149 8.46846 18.0219 8.13425C18.3291 7.8 18.7401 7.58556 19.1645 7.53952Z" />
<path d="M28.9048 0.501435C29.3376 0.364593 29.8075 0.405495 30.2104 0.614716C30.6131 0.824012 30.9162 1.18496 31.0532 1.61765L32.8891 7.4194C33.026 7.85218 32.9849 8.32219 32.7759 8.72507C32.5666 9.12792 32.2057 9.4318 31.7729 9.56882C31.3401 9.70572 30.8702 9.6647 30.4673 9.45554C30.0644 9.24623 29.7605 8.88542 29.6235 8.45261L27.7885 2.64987C27.6518 2.21704 27.6926 1.74704 27.9018 1.34421C28.1112 0.94157 28.472 0.638299 28.9048 0.501435Z" />
<path d="M40.727 0.718232C41.1007 0.511939 41.5599 0.45046 42.0034 0.547333C42.4468 0.64422 42.8386 0.891529 43.0923 1.23483C43.3458 1.57829 43.4408 1.99052 43.3559 2.37936L42.2173 7.59128C42.1323 7.98018 41.8742 8.31543 41.5005 8.52194C41.1268 8.7283 40.6676 8.78964 40.2241 8.69284C39.7805 8.5959 39.3879 8.34793 39.1343 8.00436C38.881 7.66098 38.7867 7.24946 38.8716 6.86081L40.0102 1.64792C40.0954 1.25926 40.3534 0.924604 40.727 0.718232Z" />
</svg>
